<svg width="133" height="41" viewBox="0 0 133 41" fill="none" xmlns="http://www.w3.org/2000/svg">
<g clip-path="url(#clip0_1_12115)">
<path d="M54.3658 8.69034C54.3658 9.72367 53.5324 10.557 52.4991 10.557C51.4658 10.557 50.6324 9.72367 50.6324 8.69034C50.6324 7.657 51.4658 6.82367 52.4991 6.82367C53.5324 6.82367 54.3658 7.657 54.3658 8.69034Z" fill="#518EB1"/>
<path d="M70.8192 31.0369C70.8192 33.2769 69.0059 35.0902 66.7659 35.0902C64.5259 35.0902 62.7125 33.2769 62.7125 31.0369C62.7125 28.7969 64.5259 26.9836 66.7659 26.9836C69.0059 26.9836 70.8192 28.7969 70.8192 31.0369Z" fill="#518EB1"/>
<path d="M64.4193 3.65051C64.4193 5.40385 62.9993 6.82384 61.246 6.82384C59.4926 6.82384 58.0726 5.40385 58.0726 3.65051C58.0726 2.02385 59.2993 0.683845 60.8726 0.503845H61.6126C63.1926 0.683845 64.4126 2.02385 64.4126 3.65051" fill="#518EB1"/>
<path d="M78.3388 10.4971C78.3388 11.4971 77.5254 12.3038 76.5321 12.3038C75.5388 12.3038 74.7188 11.4904 74.7188 10.4971C74.7188 9.50378 75.5321 8.68378 76.5321 8.68378C77.5321 8.68378 78.3388 9.49711 78.3388 10.4971Z" fill="#518EB1"/>
<path d="M81.339 19.0038C81.339 20.7505 79.9257 22.1638 78.179 22.1638C76.4324 22.1638 75.019 20.7505 75.019 19.0038C75.019 17.2571 76.4324 15.8438 78.179 15.8438C79.9257 15.8438 81.339 17.2571 81.339 19.0038Z" fill="#518EB1"/>
<path d="M52.5719 10.144C52.5719 10.144 56.9652 16.8507 64.3319 31.3574L66.6052 31.744L67.1586 29.7707C67.1586 29.7707 61.3319 27.2774 53.6719 9.65736C51.9652 5.72403 52.5719 10.144 52.5719 10.144Z" fill="#518EB1"/>
<path d="M52.666 7.79718C52.666 7.79718 58.086 5.72385 59.446 3.09052L60.326 4.36385C60.326 4.36385 54.746 6.99718 53.1527 8.67052C51.5594 10.3438 52.6727 7.79052 52.6727 7.79052" fill="#518EB1"/>
<path d="M60.9657 6.11049C61.5057 8.63716 65.4524 22.9572 64.9257 28.5572L69.0724 28.8772C69.0724 28.8772 66.0124 30.9638 62.0257 5.8505C61.0791 -0.116171 61.2657 4.39049 60.9724 5.58383C60.9324 5.75716 60.9257 5.93716 60.9657 6.11049Z" fill="#518EB1"/>
<path d="M62.712 2.9306C62.712 2.9306 66.5387 6.43727 76.0253 9.9506L75.3853 11.1439C75.3853 11.1439 65.7387 4.76394 61.432 4.36394L62.7053 2.9306" fill="#518EB1"/>
<path d="M66.6053 29.4373C66.6053 29.4373 73.0653 26.564 76.732 19.7106L78.3253 20.904C78.3253 20.904 74.8987 22.1773 69.072 30.8706C66.392 34.8773 66.5987 29.4373 66.5987 29.4373" fill="#518EB1"/>
<path d="M19.4261 39.4905C18.3194 40.0639 15.9994 40.6305 13.0661 40.6305C6.27939 40.6305 1.20605 36.3439 1.20605 28.4105C1.20605 20.4772 6.31272 15.7639 13.7794 15.7639C16.7461 15.7639 18.6727 16.4039 19.4927 16.8372L18.7061 19.3772C17.5661 18.8039 15.8861 18.3772 13.8861 18.3772C8.23939 18.3772 4.49272 21.9839 4.49272 28.3105C4.49272 34.2439 7.88605 37.9905 13.7127 37.9905C15.6394 37.9905 17.5727 37.5972 18.8194 36.9905L19.4261 39.4905Z" fill="#518EB1"/>
<path d="M23.3521 16.4439C24.8521 16.1906 26.8187 15.9772 29.3187 15.9772C32.392 15.9772 34.6387 16.6906 36.072 17.9772C37.3587 19.1172 38.1787 20.8706 38.1787 23.0172C38.1787 25.1639 37.5387 26.9106 36.3187 28.1639C34.6387 29.9172 31.9987 30.8106 28.9587 30.8106C28.0321 30.8106 27.1721 30.7772 26.4587 30.5972V40.2439H23.3521V16.4439ZM26.4587 28.0572C27.1387 28.2372 27.9921 28.3106 29.0321 28.3106C32.7854 28.3106 35.072 26.4506 35.072 23.2039C35.072 19.9572 32.7854 18.4506 29.392 18.4506C28.032 18.4506 26.9987 18.5572 26.4654 18.7039V28.0639L26.4587 28.0572Z" fill="#518EB1"/>
<path d="M43.2524 32.6638L40.7524 40.2372H37.5391L45.7591 16.1572H49.4724L57.6924 40.2372H54.3724L51.7991 32.6638H43.2591M51.1857 30.2372L48.7924 23.3038C48.2591 21.7305 47.8991 20.3038 47.5391 18.9105H47.4657C47.1057 20.3038 46.7524 21.8038 46.2524 23.2705L43.8924 30.2372H51.1791H51.1857Z" fill="#518EB1"/>
<path d="M86.0661 39.7905C85.4861 40.0705 84.206 40.4971 82.5794 40.4971C78.9127 40.4971 76.5327 38.0105 76.5327 34.2971C76.5327 30.5838 79.0927 27.8238 83.0594 27.8238C84.366 27.8238 85.5194 28.1505 86.1194 28.4771L85.6194 30.1571C85.0927 29.8838 84.266 29.5771 83.0594 29.5771C80.2727 29.5771 78.766 31.6571 78.766 34.1705C78.766 36.9838 80.5727 38.7105 82.986 38.7105C84.2394 38.7105 85.0727 38.4105 85.6994 38.1305L86.0727 39.7838" fill="#518EB1"/>
<path d="M88.6525 22.3972H90.8591V30.0038H90.9125C91.2658 29.3772 91.8125 28.7972 92.4925 28.4238C93.1458 28.0438 93.9258 27.8238 94.7525 27.8238C96.3858 27.8238 98.9925 28.8305 98.9925 32.9972V40.2238H96.7858V33.2438C96.7858 31.2838 96.0591 29.6572 93.9725 29.6572C92.5458 29.6572 91.4391 30.6638 91.0125 31.8372C90.8858 32.1638 90.8591 32.4905 90.8591 32.8905V40.2172H88.6525V22.3972Z" fill="#518EB1"/>
<path d="M103.813 34.5437C103.866 37.5304 105.746 38.7637 107.979 38.7637C109.559 38.7637 110.539 38.4904 111.339 38.1371L111.739 39.7171C110.959 40.0704 109.606 40.4971 107.673 40.4971C103.933 40.4971 101.699 38.0104 101.699 34.3437C101.699 30.6771 103.859 27.8171 107.399 27.8171C111.393 27.8171 112.419 31.2771 112.419 33.5171C112.419 33.9704 112.393 34.2971 112.346 34.5437H103.813ZM110.293 32.9637C110.319 31.5837 109.713 29.3971 107.233 29.3971C104.973 29.3971 104.019 31.4304 103.846 32.9637H110.299H110.293Z" fill="#518EB1"/>
<path d="M115.159 31.3571C115.159 30.0771 115.106 29.0704 115.059 28.0704H116.993L117.093 30.0504H117.166C117.846 28.8971 118.973 27.8171 121.006 27.8171C122.639 27.8171 123.893 28.8237 124.419 30.2504H124.473C124.853 29.5504 125.353 29.0437 125.853 28.6704C126.579 28.1171 127.359 27.8171 128.513 27.8171C130.146 27.8171 132.526 28.8704 132.526 33.0904V40.2171H130.366V33.3637C130.366 31.0037 129.486 29.6237 127.733 29.6237C126.453 29.6237 125.499 30.5504 125.099 31.6037C124.999 31.9304 124.926 32.3037 124.926 32.7104V40.2171H122.766V32.9371C122.766 31.0037 121.913 29.6237 120.233 29.6237C118.879 29.6237 117.846 30.7304 117.493 31.8304C117.366 32.1304 117.319 32.5304 117.319 32.9104V40.2171H115.159V31.3571Z" fill="#518EB1"/>
</g>
<defs>
<clipPath id="clip0_1_12115">
<rect width="132" height="40" fill="white" transform="translate(0.884888 0.503845)"/>
</clipPath>
</defs>
</svg>
